<svg xmlns="http://www.w3.org/2000/svg" width="64" height="76" viewBox="0 0 64 76" role="img" aria-labelledby="title"><title id="title">Религия и архитектура</title><path d="M32 73C25 63 3 48 3 32a29 29 0 0 1 58 0c0 16-22 31-29 41Z" fill="#155E58"/><circle cx="32" cy="31" r="23" fill="#FFFDF7"/><g transform="translate(8 7)" fill="none" stroke="#155E58" stroke-width="2.3" stroke-linecap="round" stroke-linejoin="round"><path d="M10 39h28 M13 36V22h22v14 M13 22c0-7 11-13 11-13s11 6 11 13 M21 36v-8a3 3 0 0 1 6 0v8 M24 9V6"/></g></svg>